<svg width="991" height="280" xmlns="http://www.w3.org/2000/svg"><defs><linearGradient id="a" gradientTransform="rotate(90)"><stop offset="5%" stop-color="#1e3842"/><stop offset="95%" stop-color="#566971"/></linearGradient><linearGradient id="b" gradientTransform="rotate(90)"><stop offset="5%" stop-color="#234350"/><stop offset="95%" stop-color="#5a727b"/></linearGradient><linearGradient id="c" gradientTransform="rotate(90)"><stop offset="5%" stop-color="#274f5e"/><stop offset="95%" stop-color="#5d7b86"/></linearGradient><linearGradient id="d" gradientTransform="rotate(90)"><stop offset="5%" stop-color="#2c5a6c"/><stop offset="95%" stop-color="#608390"/></linearGradient><linearGradient id="e" gradientTransform="rotate(90)"><stop offset="5%" stop-color="#274f5e"/><stop offset="95%" stop-color="#5d7b86"/></linearGradient><linearGradient id="f" gradientTransform="rotate(90)"><stop offset="5%" stop-color="#234350"/><stop offset="95%" stop-color="#5a727b"/></linearGradient><linearGradient id="g" gradientTransform="rotate(90)"><stop offset="5%" stop-color="#1e3842"/><stop offset="95%" stop-color="#566971"/></linearGradient><linearGradient id="h" gradientTransform="rotate(90)"><stop offset="5%" stop-color="#192c34"/><stop offset="95%" stop-color="#192C34"/></linearGradient></defs><path fill="#192c34" d="M0 0h991v280H0z"/><path d="M0 31c32.584-3.04 65.168-6.081 111-7 45.832-.919 104.911.284 151 2s79.187 3.947 117 6 80.342 3.929 118 1 70.444-10.661 115-9c44.556 1.661 100.88 12.716 145 13 44.12.284 76.034-10.205 113-13 36.966-2.795 78.983 2.102 161 7l-40 249H0Z" fill="url(#a)"/><path d="M0 62c45.645-4.487 91.29-8.973 132-7 40.71 1.973 76.487 10.407 114 12 37.513 1.593 76.761-3.655 117-4 40.239-.345 81.467 4.214 126 4 44.533-.214 92.37-5.202 136-6 43.63-.798 83.054 2.593 119 2s68.413-5.17 109-6c40.587-.83 89.293 2.085 178 5l-40 218H0Z" fill="url(#b)"/><path d="M0 93c41.082 2.365 82.163 4.73 127 6 44.837 1.27 93.428 1.442 135 1 41.572-.442 76.124-1.499 113-5 36.876-3.501 76.074-9.446 113-9 36.926.446 71.578 7.285 117 9 45.422 1.715 101.614-1.692 144-1 42.386.692 70.968 5.483 109 6 38.032.517 85.516-3.242 173-7l-40 187H0Z" fill="url(#c)"/><path d="M0 124c48.122-2.996 96.244-5.992 135-6 38.756-.008 68.147 2.973 108 5 39.853 2.027 90.168 3.1 132 4 41.832.9 75.182 1.625 111-1s74.106-8.6 118-9c43.894-.4 93.395 4.777 136 5 42.605.223 78.316-4.508 119-5s86.342 3.254 172 7l-40 156H0Z" fill="url(#d)"/><path d="M0 155c42.851 3.043 85.703 6.086 126 6 40.297-.086 78.04-3.302 119-4 40.96-.698 85.137 1.12 128 2 42.863.88 84.414.821 123 1 38.586.179 74.209.594 112 0s77.752-2.198 120-4c42.248-1.802 86.785-3.8 131-4 44.215-.2 88.107 1.4 172 3l-40 125H0Z" fill="url(#e)"/><path d="M0 186c35.474-3.209 70.949-6.417 113-6 42.051.417 90.68 4.46 131 7 40.32 2.54 72.334 3.577 118 2s104.985-5.768 148-8 69.726-2.506 106-2c36.274.506 82.112 1.79 122 3 39.888 1.21 73.825 2.346 115 3 41.175.654 89.587.827 178 1l-40 94H0Z" fill="url(#f)"/><path d="M0 217c42.286-.04 84.571-.079 124 2s76 6.276 116 4 83.428-11.024 127-11c43.572.024 87.289 8.821 126 10 38.711 1.179 72.417-5.261 113-8s88.041-1.776 130 1 78.417 7.365 120 8c41.583.635 88.292-2.682 175-6l-40 63H0Z" fill="url(#g)"/><path d="M0 248c44.87.421 89.742.843 131 2 41.258 1.157 78.904 3.05 120 4 41.096.95 85.644.956 127-2 41.356-2.956 79.52-8.875 124-11 44.48-2.125 95.273-.456 132 2 36.727 2.456 59.388 5.7 95 8s84.175 3.657 130 3 88.913-3.329 172-6l-40 32H0Z" fill="url(#h)"/></svg>