<?xml version="1.0" ?><svg width="64px" height="64px" viewBox="0 0 64 64" xmlns="http://www.w3.org/2000/svg"><g data-name="01_Math" id="_01_Math"><path d="M32,35l-.071,0a1,1,0,0,1-.878-.682L29.279,29H27a1,1,0,0,1-1-1V14a1,1,0,0,1,1-1H53a1,1,0,0,1,1,1V28a1,1,0,0,1-1,1H35.618L32.9,34.447A1,1,0,0,1,32,35Z" style="fill:#febc00"/><path d="M32,45H5a1,1,0,0,1-1-1V36a1,1,0,0,1,1-1H24a9.011,9.011,0,0,1,9,9A1,1,0,0,1,32,45Z" style="fill:#fdfeff"/><path d="M31,44a9.011,9.011,0,0,1,9-9H59a1,1,0,0,1,1,1v8a1,1,0,0,1-1,1H32A1,1,0,0,1,31,44Z" style="fill:#fdfeff"/><path d="M34,18.586l-1,1-1-1V17H30v2a1,1,0,0,0,.293.707L31.586,21l-1.293,1.293A1,1,0,0,0,30,23v2h2V23.414l1-1,1,1V25h2V23a1,1,0,0,0-.293-.707L34.414,21l1.293-1.293A1,1,0,0,0,36,19V17H34Z" style="fill:#fdfeff"/><polygon points="41 18 39 18 39 20 37 20 37 22 39 22 39 24 41 24 41 22 43 22 43 20 41 20 41 18" style="fill:#fdfeff"/><path d="M48,17v2a1,1,0,0,1-2,0V17H44v2a3,3,0,0,0,2,2.816V25h2V21.816A3,3,0,0,0,50,19V17Z" style="fill:#fdfeff"/><path d="M61,50H3a1,1,0,0,1-1-1V44a1,1,0,0,1,1-1H61a1,1,0,0,1,1,1v5A1,1,0,0,1,61,50Z" style="fill:#0455bf"/><path d="M5,48a1,1,0,0,1-1-1V43H3a1,1,0,0,0-1,1v5a1,1,0,0,0,1,1H61a1,1,0,0,0,1-1V48Z" style="fill:#004787"/><rect height="2" style="fill:#d6e8f2" width="18" x="4" y="39"/><rect height="2" style="fill:#d6e8f2" width="18" x="42" y="39"/><path d="M49,48a1,1,0,0,1-1-1V39h8v8a1,1,0,0,1-1.557.831L52.014,46.2l-2.462,1.631A.993.993,0,0,1,49,48Z" style="fill:#f74e0c"/><path d="M50,47V39H48v8a1,1,0,0,0,1.552.833l.566-.375A.99.99,0,0,1,50,47Z" style="fill:#e03a07"/><rect height="2" style="fill:#d6e8f2" width="2" x="38" y="39"/><rect height="2" style="fill:#d6e8f2" width="2" x="24" y="39"/><rect height="2" style="fill:#b1cfdd" width="2" x="46" y="39"/><rect height="2" style="fill:#e4ebf2" width="2" x="46" y="41"/></g></svg>