<svg xmlns="http://www.w3.org/2000/svg" viewBox="0 0 512.001 512.001" style="enable-background:new 0 0 512.001 512.001" xml:space="preserve"><path d="M304.002 322.529H26.981V91.202h222.465l20.376-24.48H14.741c-6.76 0-12.24 5.48-12.24 12.24v255.807c0 6.76 5.48 12.24 12.24 12.24H304.01l-.008-24.48zM498.372 78.73h-56.616c-6.146 0-11.127 4.982-11.127 11.127s4.982 11.127 11.127 11.127h56.616c6.146 0 11.127-4.982 11.127-11.127s-4.982-11.127-11.127-11.127zm-8.715-75.471c-4.345-4.345-11.391-4.345-15.737 0l-40.034 40.034c-4.345 4.345-4.345 11.391 0 15.737 4.345 4.344 11.392 4.345 15.737 0l40.034-40.034c4.345-4.345 4.345-11.391 0-15.737z"/><path d="M465.933 172.775c-.125-24.445-20.107-44.326-44.549-44.326h-87.005l-41.222-4.82 22.189-26.659c6.654-7.994 5.563-19.862-2.426-26.511-7.986-6.649-19.856-5.57-26.511 2.426l-44.417 53.365a18.824 18.824 0 0 0 12.282 30.741l66.419 7.766.009 324.655c0 12.476 10.114 22.59 22.59 22.59s22.59-10.114 22.59-22.59v-180.56h9.754v180.56c0 12.476 10.114 22.59 22.59 22.59s22.59-10.114 22.59-22.59c0-298.716-.401-127.71-.41-316.413a3.94 3.94 0 0 1 7.879-.034l.695 138.298c.052 10.346 8.449 18.731 18.822 18.731h.097c10.396-.052 18.782-8.522 18.73-18.919l-.696-138.3z"/><path d="M371.012 33.405c-21.587 0-39.015 17.51-39.015 39.015 0 21.448 17.382 39.015 39.015 39.015 21.547 0 39.015-17.468 39.015-39.015-.001-21.614-17.522-39.015-39.015-39.015zM127.186 212.896l-11.916-16.423 11.116-15.421c.501-.801.801-1.402.801-2.103 0-3.004-5.408-6.51-8.511-6.51-.901 0-2.303.401-3.004 1.502l-9.213 14.521-9.112-14.621c-.801-1.302-2.303-1.402-2.904-1.402-3.405 0-8.613 3.505-8.613 6.51 0 .801.501 1.703.801 2.103l11.015 15.321-11.817 16.524a3.488 3.488 0 0 0-.802 2.202c0 3.004 5.508 6.409 8.211 6.409 1.001 0 2.504-.401 3.205-1.402l10.015-15.221 10.115 15.221c.701 1.001 2.003 1.402 3.004 1.402 3.405 0 8.412-3.605 8.412-6.409-.002-.901-.403-1.802-.803-2.203zm40.958-21.73h-10.616V180.55c0-2.103-2.103-4.106-5.308-4.106-3.004 0-5.408 2.003-5.408 4.106v10.615h-10.715c-2.404 0-4.006 2.404-4.006 5.408 0 3.205 1.602 5.308 4.006 5.308h10.715v10.714c0 2.404 2.404 4.006 5.408 4.006 3.205 0 5.308-1.602 5.308-4.006v-10.714h10.616c2.103 0 4.206-2.103 4.206-5.308 0-3.004-2.103-5.407-4.206-5.407zm44.363-18.828c-1.402 0-2.904.601-3.405 2.203l-9.713 29.943-12.018-29.943c-.501-1.602-2.003-2.203-3.705-2.203-3.305 0-8.613 2.804-8.613 6.209 0 .601.2 1.202.401 1.702l17.224 36.853c-.7 12.016-9.913 14.72-14.32 14.72-2.404 0-3.305 2.504-3.305 5.408 0 4.807 2.604 5.508 5.909 5.508 17.925 0 20.729-13.119 25.436-25.136l14.62-37.353c.2-.501.3-1.102.3-1.502.001-3.605-5.708-6.409-8.811-6.409zm44.765 28.441h-25.837c-2.404 0-4.006 2.404-4.006 5.408 0 3.205 1.602 5.308 4.006 5.308h25.837c2.103 0 4.206-2.103 4.206-5.308 0-3.005-2.103-5.408-4.206-5.408zm0-20.329h-25.837c-2.404 0-4.006 2.404-4.006 5.408 0 3.205 1.602 5.308 4.006 5.308h25.837c2.103 0 4.206-2.103 4.206-5.308 0-3.005-2.103-5.408-4.206-5.408z"/></svg>