<svg xmlns="http://www.w3.org/2000/svg" viewBox="0 0 482.978 482.978" style="enable-background:new 0 0 482.978 482.978" xml:space="preserve"><path d="M316.968 166.011c-4.101-4.101-10.749-4.101-14.85 0L166.011 302.117c-4.1 4.101-4.1 10.749 0 14.85a10.464 10.464 0 0 0 7.425 3.075 10.47 10.47 0 0 0 7.425-3.075L316.968 180.86c4.1-4.1 4.1-10.749 0-14.849zm-125.059 65.738c21.968 0 39.841-17.873 39.841-39.842 0-21.967-17.873-39.839-39.843-39.839-21.967 0-39.838 17.872-39.838 39.839 0 21.969 17.872 39.842 39.84 39.842zm0-58.681c10.389 0 18.841 8.451 18.841 18.839 0 10.39-8.452 18.842-18.841 18.842-10.388 0-18.84-8.452-18.84-18.842 0-10.387 8.451-18.839 18.84-18.839zm99.16 78.161c-21.969 0-39.841 17.871-39.841 39.838 0 21.97 17.872 39.844 39.841 39.844 21.968 0 39.84-17.874 39.84-39.844 0-21.967-17.872-39.838-39.84-39.838zm0 58.681c-10.389 0-18.841-8.453-18.841-18.844 0-10.388 8.452-18.838 18.841-18.838 10.389 0 18.84 8.45 18.84 18.838 0 10.391-8.451 18.844-18.84 18.844z"/><path d="M462.589 197.194c-6.095-8.077-11.853-15.707-14.199-22.932-2.515-7.748-2.38-17.641-2.236-28.114.225-16.337.456-33.23-9.291-46.624-9.846-13.528-26.071-18.525-41.762-23.358-9.933-3.058-19.313-5.947-25.77-10.644-6.323-4.602-11.891-12.556-17.785-20.976-9.038-12.911-19.282-27.545-35.418-32.784-4.064-1.32-8.481-1.989-13.128-1.989-11.279 0-22.583 3.845-33.514 7.564C259.414 20.764 249.899 24 241.489 24c-8.411 0-17.924-3.236-27.997-6.663-10.931-3.719-22.233-7.564-33.514-7.564-4.646 0-9.063.669-13.128 1.989-16.136 5.239-26.38 19.873-35.418 32.784-5.895 8.42-11.462 16.374-17.785 20.975-6.456 4.698-15.837 7.587-25.769 10.646-15.691 4.832-31.917 9.828-41.763 23.358-9.747 13.392-9.515 30.286-9.291 46.623.144 10.475.279 20.367-2.236 28.115-2.346 7.226-8.104 14.855-14.199 22.933C10.832 209.859 0 224.213 0 241.489s10.832 31.63 20.39 44.295c6.096 8.077 11.853 15.706 14.199 22.933 2.516 7.747 2.38 17.641 2.236 28.114-.224 16.337-.456 33.23 9.291 46.623 9.846 13.529 26.071 18.525 41.763 23.357 9.932 3.059 19.312 5.947 25.769 10.646 6.323 4.602 11.891 12.555 17.786 20.976 9.038 12.91 19.282 27.544 35.418 32.783 4.064 1.32 8.481 1.989 13.128 1.989 11.28 0 22.582-3.845 33.514-7.563 10.073-3.427 19.587-6.663 27.997-6.663s17.925 3.236 27.997 6.663c10.931 3.719 22.233 7.563 33.514 7.563 4.647 0 9.065-.669 13.129-1.989 16.136-5.239 26.379-19.873 35.417-32.784 5.895-8.42 11.462-16.374 17.784-20.975 6.457-4.698 15.838-7.587 25.77-10.646 15.691-4.832 31.916-9.828 41.762-23.357 9.748-13.393 9.517-30.287 9.292-46.624-.143-10.475-.278-20.367 2.236-28.114 2.347-7.226 8.105-14.855 14.199-22.933 9.558-12.664 20.39-27.018 20.39-44.294s-10.834-31.631-20.392-44.295zm-16.762 75.94c-6.871 9.104-13.975 18.519-17.41 29.097-3.588 11.05-3.422 23.168-3.262 34.887.185 13.494.359 26.24-5.273 33.979-5.73 7.875-17.986 11.649-30.963 15.646-11.14 3.43-22.657 6.977-31.945 13.735-9.158 6.665-16.008 16.449-22.632 25.911-7.842 11.204-15.25 21.786-24.699 24.855-1.994.647-4.167.962-6.643.962-7.806 0-17.008-3.13-26.75-6.444-11.246-3.826-22.876-7.782-34.761-7.782-11.884 0-23.513 3.956-34.76 7.782-9.743 3.314-18.945 6.444-26.75 6.444-2.475 0-4.648-.314-6.643-.962-9.45-3.068-16.857-13.65-24.7-24.854-6.624-9.463-13.474-19.247-22.633-25.913-9.287-6.758-20.805-10.305-31.945-13.735-12.976-3.995-25.233-7.77-30.963-15.645-5.632-7.739-5.458-20.484-5.272-33.978.161-11.72.327-23.839-3.261-34.888-3.435-10.578-10.54-19.992-17.411-29.098C28.846 262.127 21 251.73 21 241.489s7.846-20.638 16.152-31.643c6.871-9.105 13.976-18.52 17.411-29.098 3.588-11.05 3.421-23.169 3.261-34.889-.185-13.493-.36-26.238 5.272-33.977 5.73-7.875 17.987-11.649 30.963-15.645 11.14-3.431 22.658-6.978 31.945-13.735 9.158-6.666 16.008-16.45 22.631-25.912 7.843-11.204 15.251-21.786 24.7-24.855 1.995-.647 4.167-.962 6.643-.962 7.806 0 17.008 3.13 26.751 6.444C217.975 41.044 229.604 45 241.489 45c11.884 0 23.514-3.956 34.761-7.782 9.742-3.314 18.944-6.444 26.75-6.444 2.475 0 4.647.314 6.642.962 9.45 3.069 16.858 13.651 24.701 24.855 6.624 9.462 13.473 19.246 22.632 25.912 9.287 6.758 20.806 10.305 31.945 13.735 12.976 3.996 25.232 7.771 30.963 15.644 5.633 7.74 5.458 20.486 5.272 33.979-.16 11.72-.326 23.838 3.262 34.888 3.435 10.576 10.539 19.991 17.409 29.096 8.307 11.007 16.152 21.403 16.152 31.645 0 10.24-7.845 20.637-16.151 31.644z"/><path d="M404.536 188.513c-1.837-5.655-1.733-13.157-1.624-21.1.171-12.472.365-26.607-7.669-37.648-8.112-11.146-21.688-15.326-33.665-19.015-7.528-2.318-14.64-4.508-19.343-7.93-4.599-3.348-8.817-9.374-13.284-15.754-7.235-10.337-15.437-22.052-28.723-26.366-3.393-1.103-7.07-1.661-10.928-1.661-9.154 0-18.127 3.053-26.804 6.004-7.641 2.6-14.858 5.055-21.008 5.055-6.15 0-13.367-2.455-21.008-5.055-8.676-2.951-17.648-6.004-26.803-6.004-3.858 0-7.534.559-10.927 1.661-13.287 4.314-21.488 16.029-28.724 26.364-4.467 6.381-8.686 12.408-13.286 15.756-4.703 3.423-11.814 5.612-19.343 7.931-11.976 3.688-25.551 7.869-33.663 19.014-8.034 11.039-7.84 25.176-7.669 37.648.109 7.942.212 15.445-1.624 21.1-1.703 5.243-6.063 11.021-10.679 17.138-7.65 10.138-16.321 21.627-16.321 35.839 0 14.213 8.671 25.702 16.321 35.84 4.617 6.116 8.977 11.895 10.679 17.138 1.836 5.654 1.733 13.157 1.624 21.1-.171 12.472-.365 26.608 7.669 37.647 8.112 11.146 21.687 15.326 33.664 19.014 7.529 2.319 14.64 4.509 19.343 7.932 4.599 3.347 8.818 9.373 13.285 15.754 7.236 10.336 15.437 22.051 28.724 26.365 3.393 1.103 7.069 1.661 10.927 1.661 9.154 0 18.126-3.053 26.803-6.005 7.641-2.6 14.858-5.055 21.008-5.055 6.15 0 13.367 2.455 21.008 5.055 8.677 2.952 17.648 6.005 26.805 6.005 3.857 0 7.533-.559 10.927-1.661 13.286-4.315 21.487-16.029 28.723-26.366 4.467-6.38 8.685-12.406 13.284-15.753 4.703-3.424 11.814-5.613 19.344-7.932 11.977-3.688 25.552-7.868 33.662-19.014 8.035-11.04 7.842-25.177 7.67-37.649-.108-7.942-.211-15.444 1.624-21.099 1.703-5.243 6.063-11.021 10.68-17.138 7.649-10.137 16.32-21.627 16.32-35.839 0-14.213-8.671-25.703-16.321-35.84-4.616-6.118-8.976-11.895-10.678-17.137zm-6.084 76.166c-5.457 7.23-11.099 14.707-13.891 23.302-2.907 8.956-2.775 18.572-2.648 27.872.139 10.089.27 19.618-3.651 25.004-3.995 5.491-13.16 8.314-22.863 11.301-8.843 2.724-17.986 5.539-25.521 11.022-7.434 5.41-12.872 13.178-18.13 20.69-5.865 8.378-11.405 16.292-18.006 18.436-1.313.426-2.766.634-4.441.634-5.681 0-12.655-2.373-20.04-4.886-8.921-3.035-18.146-6.174-27.771-6.174-9.624 0-18.85 3.139-27.772 6.174-7.384 2.513-14.359 4.886-20.039 4.886-1.675 0-3.127-.208-4.441-.634-6.601-2.144-12.141-10.058-18.006-18.436-5.259-7.513-10.697-15.28-18.132-20.691-7.533-5.482-16.676-8.298-25.518-11.02-9.703-2.988-18.869-5.811-22.865-11.302-3.919-5.386-3.788-14.914-3.65-25.002.128-9.3.259-18.917-2.649-27.874-2.791-8.594-8.434-16.071-13.89-23.302-6.214-8.234-12.083-16.012-12.083-23.189 0-7.178 5.869-14.955 12.083-23.188 5.457-7.23 11.1-14.708 13.891-23.303 2.908-8.957 2.776-18.574 2.649-27.874-.138-10.088-.269-19.616 3.65-25.002 3.996-5.49 13.161-8.313 22.864-11.301 8.842-2.723 17.986-5.539 25.519-11.021 7.435-5.411 12.873-13.179 18.132-20.691 5.865-8.378 11.405-16.292 18.006-18.436 1.314-.427 2.766-.634 4.441-.634 5.681 0 12.655 2.373 20.04 4.885 8.921 3.035 18.147 6.174 27.771 6.174 9.624 0 18.85-3.139 27.771-6.174 7.385-2.512 14.359-4.885 20.04-4.885 1.675 0 3.128.207 4.441.634 6.601 2.144 12.141 10.058 18.006 18.436 5.258 7.513 10.696 15.28 18.131 20.691 7.533 5.482 16.677 8.298 25.52 11.02 9.703 2.988 18.869 5.811 22.865 11.301 3.919 5.387 3.788 14.915 3.65 25.004-.128 9.3-.26 18.916 2.648 27.873 2.791 8.594 8.433 16.07 13.889 23.301 6.215 8.234 12.084 16.013 12.084 23.19-.001 7.177-5.87 14.954-12.084 23.189z"/></svg>