<svg width="64" height="64" xmlns="http://www.w3.org/2000/svg"><g data-name="01_Math"><path d="M32 35h-.071a1 1 0 0 1-.878-.682L29.279 29H27a1 1 0 0 1-1-1V14a1 1 0 0 1 1-1h26a1 1 0 0 1 1 1v14a1 1 0 0 1-1 1H35.618L32.9 34.447A1 1 0 0 1 32 35Z" style="fill:#febc00"/><path d="M32 45H5a1 1 0 0 1-1-1v-8a1 1 0 0 1 1-1h19a9.011 9.011 0 0 1 9 9 1 1 0 0 1-1 1Z" style="fill:#fdfeff"/><path d="M31 44a9.011 9.011 0 0 1 9-9h19a1 1 0 0 1 1 1v8a1 1 0 0 1-1 1H32a1 1 0 0 1-1-1Zm3-25.414-1 1-1-1V17h-2v2a1 1 0 0 0 .293.707L31.586 21l-1.293 1.293A1 1 0 0 0 30 23v2h2v-1.586l1-1 1 1V25h2v-2a1 1 0 0 0-.293-.707L34.414 21l1.293-1.293A1 1 0 0 0 36 19v-2h-2ZM41 18h-2v2h-2v2h2v2h2v-2h2v-2h-2v-2zm7-1v2a1 1 0 0 1-2 0v-2h-2v2a3 3 0 0 0 2 2.816V25h2v-3.184A3 3 0 0 0 50 19v-2Z" style="fill:#fdfeff"/><path d="M61 50H3a1 1 0 0 1-1-1v-5a1 1 0 0 1 1-1h58a1 1 0 0 1 1 1v5a1 1 0 0 1-1 1Z" style="fill:#0455bf"/><path d="M5 48a1 1 0 0 1-1-1v-4H3a1 1 0 0 0-1 1v5a1 1 0 0 0 1 1h58a1 1 0 0 0 1-1v-1Z" style="fill:#004787"/><path style="fill:#d6e8f2" d="M4 39h18v2H4zm38 0h18v2H42z"/><path d="M49 48a1 1 0 0 1-1-1v-8h8v8a1 1 0 0 1-1.557.831L52.014 46.2l-2.462 1.631A.993.993 0 0 1 49 48Z" style="fill:#f74e0c"/><path d="M50 47v-8h-2v8a1 1 0 0 0 1.552.833l.566-.375A.99.99 0 0 1 50 47Z" style="fill:#e03a07"/><path style="fill:#d6e8f2" d="M38 39h2v2h-2zm-14 0h2v2h-2z"/><path style="fill:#b1cfdd" d="M46 39h2v2h-2z"/><path style="fill:#e4ebf2" d="M46 41h2v2h-2z"/></g></svg>