<svg xmlns="http://www.w3.org/2000/svg" viewBox="0 0 420.732 420.732"><path d="M284.866 363.689c-35.542 0-64.457-28.916-64.457-64.457 0-5.523-4.477-10-10-10s-10 4.477-10 10c0 46.57 37.887 84.457 84.457 84.457 5.523 0 10-4.477 10-10s-4.477-10-10-10z"/><path d="M370.702 400.732h-19.133c32.983-21.749 54.797-59.122 54.797-101.5 0-52.965-34.069-98.114-81.441-114.706L249.334 6.099a10 10 0 0 0-18.416 0L174.192 140H51.366c-5.523 0-10 4.477-10 10v191h-17c-5.523 0-10 4.477-10 10s4.477 10 10 10h155.913a122.433 122.433 0 0 0 37.885 39.732h-19.132c-5.523 0-10 4.477-10 10s4.477 10 10 10h171.67c5.523 0 10-4.477 10-10s-4.478-10-10-10zM240.126 35.635l60.64 143.137a122.16 122.16 0 0 0-15.9-1.041c-7.687 0-15.206.726-22.5 2.097V150c0-5.523-4.477-10-10-10h-56.453l44.213-104.365zM61.366 341V160h181v25.409c-46.097 17.268-79 61.773-79 113.823 0 14.668 2.613 28.738 7.398 41.768H61.366zm122-41.768c0-55.967 45.533-101.5 101.5-101.5s101.5 45.533 101.5 101.5-45.533 101.5-101.5 101.5-101.5-45.533-101.5-101.5z"/></svg>