<svg xmlns="http://www.w3.org/2000/svg" viewBox="0 0 512 512" style="enable-background:new 0 0 512 512" xml:space="preserve"><path style="fill:#5aa4c4" d="M256 512C114.839 512 0 397.161 0 256S114.839 0 256 0s256 114.839 256 256-114.839 256-256 256z"/><path style="fill:#42819b" d="M512 256C512 114.839 397.161 0 256 0v512c141.161 0 256-114.839 256-256z"/><path style="fill:#fff" d="M362.273 149.727c-6.523-6.523-17.091-6.523-23.614 0L149.727 338.659c-6.523 6.517-6.523 17.096 0 23.614a16.646 16.646 0 0 0 11.806 4.893 16.64 16.64 0 0 0 11.806-4.893l188.932-188.932c6.525-6.519 6.525-17.096.002-23.614z"/><path style="fill:#ffee59" d="M338.659 149.727 256 232.386v47.228l106.273-106.273c6.523-6.517 6.523-17.096 0-23.614-6.523-6.523-17.091-6.523-23.614 0zm50.935 178.637H278.266c-9.225 0-16.699 7.475-16.699 16.699s7.475 16.699 16.699 16.699h111.329c9.225 0 16.699-7.475 16.699-16.699s-7.475-16.699-16.7-16.699z"/><path style="fill:#fff" d="M161.371 222.601c0 9.225 7.475 16.699 16.699 16.699 9.225 0 16.699-7.475 16.699-16.699v-38.965h38.965c9.225 0 16.699-7.475 16.699-16.699s-7.475-16.699-16.699-16.699h-38.965v-38.965c0-9.225-7.475-16.699-16.699-16.699-9.225 0-16.699 7.475-16.699 16.699v38.965h-38.965c-9.225 0-16.699 7.475-16.699 16.699s7.475 16.699 16.699 16.699h38.965v38.965z"/></svg>