<svg xmlns="http://www.w3.org/2000/svg" viewBox="0 0 53.5 53.5" style="enable-background:new 0 0 53.5 53.5" xml:space="preserve"><path style="fill:#010002" d="M52 50.5H3v-49a1.5 1.5 0 1 0-3 0V52a1.5 1.5 0 0 0 1.5 1.5H52a1.5 1.5 0 1 0 0-3z"/><path style="fill:#010002" d="m12.108 36.417-4.375 8a1.5 1.5 0 1 0 2.631 1.439l4.375-8c.712-1.302 1.616-2.337 2.585-3.004.155.027.312.048.474.048.792 0 1.501-.337 2.005-.871.719.024 1.374.296 1.949.831 1.379 1.282 3.05 1.744 4.707 1.299 2.452-.658 4.512-3.172 5.651-6.896l1.445-4.719c.515-1.681 1.047-2.754 1.489-3.432.312.122.649.195 1.004.195.177 0 .349-.021.517-.052l2.377 5.023a1.501 1.501 0 0 0 2.712-1.284l-2.625-5.546c-.083-.176-.173-.319-.261-.47.023-.143.044-.286.044-.435a2.762 2.762 0 0 0-5.525-.03c-1.003 1.11-1.892 2.838-2.601 5.152l-1.445 4.719c-.964 3.149-2.472 4.583-3.562 4.876-.647.176-1.265-.021-1.886-.599a5.982 5.982 0 0 0-3.449-1.598 2.765 2.765 0 0 0-5.312 1.072c0 .215.03.421.076.622-1.146.914-2.175 2.152-3 3.66z"/></svg>